<?xml version="1.0" standalone="no"?>
<!DOCTYPE svg PUBLIC "-//W3C//DTD SVG 1.1//EN" "http://www.w3.org/Graphics/SVG/1.1/DTD/svg11.dtd" >
<svg xmlns="http://www.w3.org/2000/svg">
<metadata></metadata>
<defs>
<font id="UnivoxRegular" horiz-adv-x="6107" >
<font-face units-per-em="2048" ascent="1520" descent="-528" />
<missing-glyph horiz-adv-x="3641" />
<glyph unicode="&#x28;C&#x29;" horiz-adv-x="1501" d="M164 289v809q0 157 66 222.5t221 65.5h600q155 0 220.5 -65.5t65.5 -222.5v-809q0 -157 -65.5 -223t-220.5 -66h-600q-155 0 -221 66t-66 223zM268 276q0 -103 41 -145.5t137 -42.5h611q95 0 136.5 42.5t41.5 145.5v832q0 103 -41.5 145.5t-136.5 42.5h-611 q-96 0 -137 -42.5t-41 -145.5v-832zM557 545v315q0 61 27 89t86 28h260v-86h-232q-41 0 -41 -41v-287q0 -28 8.5 -36.5t34.5 -8.5h232v-90h-262q-59 0 -86 28t-27 89z" />
<glyph unicode="&#x28;R&#x29;" horiz-adv-x="1501" d="M164 289v809q0 157 66 222.5t221 65.5h600q155 0 220.5 -65.5t65.5 -222.5v-809q0 -157 -65.5 -223t-220.5 -66h-600q-155 0 -221 66t-66 223zM268 276q0 -103 41 -145.5t137 -42.5h611q95 0 136.5 42.5t41.5 145.5v832q0 103 -41.5 145.5t-136.5 42.5h-611 q-96 0 -137 -42.5t-41 -145.5v-832zM512 428v549h371q49 0 70.5 -22.5t21.5 -69.5v-121q0 -80 -68 -90q78 -7 78 -70v-176h-92v158q0 24 -14.5 33.5t-61.5 9.5h-217v-201h-88zM600 707h213q45 0 58.5 14t13.5 43v100q0 21 -8.5 29t-36.5 8h-240v-194z" />
<glyph horiz-adv-x="0" />
<glyph horiz-adv-x="2048" />
<glyph horiz-adv-x="3641" />
<glyph unicode=" "  horiz-adv-x="3641" />
<glyph unicode="&#x09;" horiz-adv-x="3641" />
<glyph unicode="&#xa0;" horiz-adv-x="3641" />
<glyph unicode="!" horiz-adv-x="501" d="M164 0v309h174v-309h-174zM164 432v954h174v-954h-174z" />
<glyph unicode="&#x22;" horiz-adv-x="958" d="M164 838v632h151v-632h-151zM643 838v632h152v-632h-152z" />
<glyph unicode="#" horiz-adv-x="1667" d="M61 401v101h379l80 385h-375v102h396l84 397h127l-84 -397h467l84 397h129l-84 -397h342v-102h-363l-82 -385h367v-101h-387l-84 -401h-127l84 401h-469l-84 -401h-125l84 401h-359zM565 502h469l80 385h-467z" />
<glyph unicode="$" horiz-adv-x="3993" d="M150 174v164h3475q36 0 49.5 15t13.5 55v192q0 41 -55 41h-3305q-91 0 -134.5 45.5t-43.5 126.5v199q0 106 46 155.5t160 49.5h1606v172h156v-172h1732v-158h-3467q-38 0 -51 -16t-13 -58v-137q0 -29 10 -40t40 -11h3313q88 0 132 -45.5t44 -122.5v-252 q0 -105 -47.5 -154t-160.5 -49h-1532v-174h-156v174h-1812z" />
<glyph unicode="%" horiz-adv-x="6297" d="M123 881v245q0 141 101.5 202t322.5 61h1960q222 0 324 -61t102 -202v-245q0 -141 -102 -202t-324 -61h-1960q-221 0 -322.5 61t-101.5 202zM242 881q0 -52 25 -82t92 -46t188 -16h1960q122 0 189.5 16t92.5 46t25 82v245q0 52 -25 82t-93 46t-189 16h-1960 q-120 0 -187.5 -16t-92.5 -46t-25 -82v-245zM2269 96l1729 1293l65 -95l-1726 -1294zM3365 262v246q0 141 101.5 201.5t322.5 60.5h1960q222 0 324 -61t102 -201v-246q0 -140 -102 -201t-324 -61h-1960q-221 0 -322.5 60.5t-101.5 201.5zM3484 262q0 -52 25 -82t92 -45.5 t188 -15.5h1960q122 0 189.5 15.5t92.5 45.5t25 82v246q0 52 -25 81.5t-93 45.5t-189 16h-1960q-120 0 -187.5 -16t-92.5 -45.5t-25 -81.5v-246z" />
<glyph unicode="&#x26;" horiz-adv-x="5015" d="M123 467v455q0 251 184 359t584 108h893v-175h-893q-177 0 -293 -17t-182.5 -55t-92.5 -90t-26 -130v-121l2369 -277l2302 690v-174l-1886 -565l1886 -211v-174l-2302 262l-1118 -336q-49 -16 -98 -16h-559q-400 0 -584 108t-184 359zM297 467q0 -106 49 -167t180 -93.5 t365 -32.5h573q34 0 68 10l719 215l-1954 230v-162z" />
<glyph unicode="'" horiz-adv-x="479" d="M164 838v632h151v-632h-151z" />
<glyph unicode="(" horiz-adv-x="792" d="M266 145v1088q0 120 31 205t93 136.5t145 76t196 26.5v-131q-98 -5 -152.5 -17t-95.5 -45.5t-56 -92.5t-15 -158v-1088q0 -79 11 -132t31.5 -87t61.5 -53t89 -27t126 -12v-131q-113 2 -196 26.5t-145 75.5t-93 136t-31 204z" />
<glyph unicode=")" horiz-adv-x="792" d="M61 -166q65 3 107.5 9t81.5 19t61.5 33.5t39.5 55t23.5 81.5t6.5 113v1088q0 66 -6.5 113t-23.5 81.5t-39.5 55.5t-61.5 34.5t-81.5 19.5t-107.5 9v131q113 -2 196 -26.5t145 -76t93 -136.5t31 -205v-1088q0 -119 -31 -204t-93 -136t-145 -75.5t-196 -26.5v131z" />
<glyph unicode="*" horiz-adv-x="1320" d="M164 1065l37 113l411 -146l-10 436h117l-8 -434l409 144l37 -111l-414 -125l263 -348l-95 -68l-249 357l-248 -359l-95 70l263 346z" />
<glyph unicode="+" horiz-adv-x="1363" d="M164 645v143h446v447h144v-447h446v-143h-446v-448h-144v448h-446z" />
<glyph unicode="," horiz-adv-x="567" d="M164 -160l53 185q12 44 12 108v176h174v-186q0 -48 -20 -107l-59 -176h-160z" />
<glyph unicode="-" horiz-adv-x="1374" d="M164 639v182h1046v-182h-1046z" />
<glyph unicode="." horiz-adv-x="501" d="M164 0v354h174v-354h-174z" />
<glyph unicode="/" horiz-adv-x="2803" d="M164 -154l2371 1784l105 -139l-2370 -1786z" />
<glyph unicode="0" horiz-adv-x="5431" d="M123 467v455q0 251 184 359t584 108h3649q400 0 584 -108t184 -359v-455q0 -251 -184 -359t-584 -108h-3649q-400 0 -584 108t-184 359zM297 467q0 -106 49 -167t180 -93.5t365 -32.5h3649q234 0 365 32.5t180 93.5t49 167v455q0 78 -26 130t-92.5 90t-182.5 55t-293 17 h-3649q-177 0 -293 -17t-182.5 -55t-92.5 -90t-26 -130v-455z" />
<glyph unicode="1" horiz-adv-x="1630" d="M123 1214v175h616q400 0 584 -108t184 -359v-922h-174v922q0 79 -26 131t-92.5 89.5t-182.5 54.5t-293 17h-616z" />
<glyph unicode="2" horiz-adv-x="5431" d="M123 346v111q0 84 33.5 145.5t109.5 107t205 68.5t313 23h3867q183 0 290.5 18.5t153 55.5t45.5 98v69q0 61 -45.5 98t-153 55.5t-290.5 18.5h-4489v175h4489q185 0 314.5 -23t205.5 -69t110 -108t34 -147v-69q0 -85 -34 -146.5t-110 -107t-205.5 -68t-314.5 -22.5h-3867 q-183 0 -290.5 -18.5t-153 -55.5t-45.5 -98v-111q0 -62 46 -99t153 -55t290 -18h4467v-174h-4467q-184 0 -313 23t-205 68.5t-109.5 107.5t-33.5 147z" />
<glyph unicode="3" horiz-adv-x="5351" d="M98 0v174h4475q183 0 290.5 18t153.5 55t46 99v117q0 37 -27.5 65t-90 49.5t-171 32.5t-262.5 11h-4375v172h4375q205 0 329 19.5t173 53t49 84.5v92q0 61 -46 98t-153.5 55.5t-290.5 18.5h-4471v175h4471q185 0 314.5 -23t205.5 -69t110 -108t34 -147v-92 q0 -94 -73 -156.5t-202 -86.5q128 -25 201.5 -88.5t73.5 -155.5v-117q0 -85 -34 -147t-110 -107.5t-205.5 -68.5t-314.5 -23h-4475z" />
<glyph unicode="4" horiz-adv-x="5318" d="M59 670q0 69 78 84l3754 665v-663h1366v-172h-1366v-584h-174v584h-3563q-42 0 -68.5 24.5t-26.5 61.5zM977 756h2740v471z" />
<glyph unicode="5" horiz-adv-x="5341" d="M131 715v588q0 86 88 86h4977v-175h-4891v-413h4252q184 0 313 -23t205 -68.5t109.5 -107t33.5 -145.5v-111q0 -85 -33.5 -147t-109.5 -107.5t-205 -68.5t-313 -23h-4405v174h4405q183 0 290 18t153 55t46 99v111q0 61 -45.5 98t-153 55.5t-290.5 18.5h-4338 q-88 0 -88 86z" />
<glyph unicode="6" horiz-adv-x="5355" d="M123 467v455q0 251 184 359t584 108h4206v-175h-4206q-177 0 -293 -17t-182.5 -55t-92.5 -90t-26 -130v-113h4284q185 0 314.5 -23t205.5 -68.5t110 -107t34 -145.5v-119q0 -85 -34 -147t-110 -107.5t-205.5 -68.5t-314.5 -23h-3690q-400 0 -584 108t-184 359zM297 467 q0 -106 49 -167t180 -93.5t365 -32.5h3690q183 0 290.5 18t153.5 55t46 99v119q0 91 -109.5 130.5t-380.5 39.5h-4284v-168z" />
<glyph unicode="7" horiz-adv-x="5206" d="M94 1214v175h4201q400 0 584 -108t184 -359v-922h-174v922q0 79 -26 131t-92.5 89.5t-182.5 54.5t-293 17h-4201z" />
<glyph unicode="8" horiz-adv-x="5275" d="M117 346v117q0 92 73 155.5t201 88.5q-128 24 -201 86.5t-73 156.5v92q0 85 34 147t109.5 108t205 69t314.5 23h3715q185 0 314.5 -23t205.5 -69t110 -108t34 -147v-92q0 -94 -73 -156.5t-202 -86.5q128 -25 201.5 -88.5t73.5 -155.5v-117q0 -85 -34 -147t-110 -107.5 t-205.5 -68.5t-314.5 -23h-3715q-185 0 -314 23t-205 68.5t-110 107.5t-34 147zM291 346q0 -62 46 -99t153 -55t290 -18h3715q183 0 290.5 18t153.5 55t46 99v117q0 37 -27.5 65t-90 49.5t-171 32.5t-262.5 11h-3592q-154 0 -262.5 -11t-171 -32.5t-90 -49.5t-27.5 -65v-117 zM291 950q0 -51 49 -84.5t173 -53t329 -19.5h3592q205 0 329 19.5t173 53t49 84.5v92q0 61 -46 98t-153.5 55.5t-290.5 18.5h-3715q-183 0 -290.5 -18.5t-153 -55.5t-45.5 -98v-92z" />
<glyph unicode="9" horiz-adv-x="5294" d="M111 924v118q0 85 34 147t109.5 108t205 69t314.5 23h3629q400 0 584 -108t184 -359v-455q0 -251 -184 -359t-584 -108h-4145v174h4145q177 0 293 17t182.5 55.5t92.5 90.5t26 130v113h-4223q-148 0 -260.5 15t-189 43t-124 71t-68.5 95.5t-21 119.5zM285 924 q0 -61 45.5 -97.5t153 -54.5t290.5 -18h4223v168q0 79 -26 131t-92.5 89.5t-182.5 54.5t-293 17h-3629q-183 0 -290 -18t-153 -55t-46 -99v-118z" />
<glyph unicode=":" horiz-adv-x="669" d="M248 0v309h174v-309h-174zM248 729v309h174v-309h-174z" />
<glyph unicode=";" horiz-adv-x="655" d="M180 -160l53 185q13 48 13 108v176h174v-186q0 -45 -21 -107l-59 -176h-160zM246 729v309h176v-309h-176z" />
<glyph unicode="&#x3c;" horiz-adv-x="1363" d="M164 618v117l1036 467v-151l-858 -373l858 -371v-151z" />
<glyph unicode="=" horiz-adv-x="1363" d="M164 379v143h1036v-143h-1036zM164 911v144h1036v-144h-1036z" />
<glyph unicode="&#x3e;" horiz-adv-x="1363" d="M164 156v151l858 371l-858 373v151l1036 -467v-117z" />
<glyph unicode="?" horiz-adv-x="3872" d="M135 0v354h174v-354h-174zM135 438v43q0 67 21 119.5t69 95.5t124 71t188 43t260 15h2351q183 0 290.5 18.5t153 55.5t45.5 98v45q0 61 -45.5 98t-153 55.5t-290.5 18.5h-2974v175h2974q185 0 314.5 -23t205 -69t109.5 -108t34 -147v-45q0 -85 -33.5 -146.5t-110 -107 t-205.5 -68t-314 -22.5h-2351q-183 0 -290.5 -18.5t-153.5 -55.5t-46 -98v-43h-172z" />
<glyph unicode="@" horiz-adv-x="2627" d="M123 63v834q0 192 141 275t447 83h1206q306 0 447 -83t141 -275v-455q0 -192 -141 -275t-447 -83h-776q-306 0 -448 83t-142 275v37q0 192 142 274.5t448 82.5h1231v61q0 81 -37 128t-137.5 72t-280.5 25h-1206q-180 0 -280.5 -25t-137.5 -72t-37 -128v-834 q0 -81 37 -128t137.5 -72t280.5 -25h1693v-131h-1693q-307 0 -447.5 81.5t-140.5 274.5zM686 442q0 -81 37.5 -128t138 -72t279.5 -25h776q180 0 280.5 25t137.5 72t37 128v263h-1231q-178 0 -279 -26t-138.5 -73t-37.5 -127v-37z" />
<glyph unicode="A" horiz-adv-x="6223" d="M164 0v1303q0 86 86 86h5724q86 0 86 -86v-1303h-172v608h-5550v-608h-174zM338 782h5550v432h-5550v-432z" />
<glyph unicode="B" horiz-adv-x="6148" d="M164 86v1217q0 86 86 86h5132q185 0 314.5 -23t205.5 -69t110 -108t34 -147v-92q0 -94 -73 -156.5t-202 -86.5q128 -25 201.5 -88.5t73.5 -155.5v-117q0 -85 -34 -147t-110 -107.5t-205.5 -68.5t-314.5 -23h-5132q-86 0 -86 86zM338 174h5044q183 0 290.5 18t153.5 55 t46 99v117q0 37 -27.5 65t-90 49.5t-171 32.5t-262.5 11h-4983v-447zM338 793h4983q205 0 329 19.5t173 53t49 84.5v92q0 61 -46 98t-153.5 55.5t-290.5 18.5h-5044v-421z" />
<glyph unicode="C" horiz-adv-x="5892" d="M123 467v455q0 251 184 359t584 108h4934v-175h-4934q-177 0 -293 -17t-182.5 -55t-92.5 -90t-26 -130v-455q0 -106 49 -167t180 -93.5t365 -32.5h4934v-174h-4934q-400 0 -584 108t-184 359z" />
<glyph unicode="D" horiz-adv-x="6182" d="M164 86v1217q0 86 86 86h5042q400 0 584 -108t184 -359v-455q0 -251 -184 -359t-584 -108h-5042q-86 0 -86 86zM338 174h4954q235 0 366.5 32.5t180.5 93.5t49 167v455q0 78 -26 130t-92.5 90t-183 55t-294.5 17h-4954v-1040z" />
<glyph unicode="E" horiz-adv-x="6135" d="M123 467v455q0 251 184 359t584 108h5108v-175h-5108q-177 0 -293 -17t-182.5 -55t-92.5 -90t-26 -130v-123h5681v-172h-5681v-160q0 -106 49 -167t180 -93.5t365 -32.5h5110v-174h-5110q-400 0 -584 108t-184 359z" />
<glyph unicode="F" horiz-adv-x="6039" d="M164 0v922q0 251 184 359t584 108h5040v-175h-5040q-177 0 -293 -17t-182.5 -55t-92.5 -90t-26 -130v-152h5609v-174h-5609v-596h-174z" />
<glyph unicode="G" horiz-adv-x="6158" d="M123 467v455q0 251 184 359t584 108h5046v-175h-5046q-177 0 -293 -17t-182.5 -55t-92.5 -90t-26 -130v-455q0 -106 49 -167t180 -93.5t365 -32.5h4530q183 0 290.5 18t153.5 55t46 99v119q0 91 -109.5 130.5t-380.5 39.5h-2113v174h2113q185 0 314.5 -23t205.5 -68.5 t110 -107t34 -145.5v-119q0 -85 -34 -147t-110 -107.5t-205.5 -68.5t-314.5 -23h-4530q-400 0 -584 108t-184 359z" />
<glyph unicode="H" horiz-adv-x="6268" d="M164 0v1389h174v-586h5595v586h172v-1389h-172v629h-5595v-629h-174z" />
<glyph unicode="I" horiz-adv-x="542" d="M184 0v1389h174v-1389h-174z" />
<glyph unicode="J" horiz-adv-x="5206" d="M61 467v192h175v-192q0 -106 48.5 -167t179.5 -93.5t365 -32.5h3466q234 0 365 32.5t180 93.5t49 167v922h174v-922q0 -251 -184 -359t-584 -108h-3466q-400 0 -584 108t-184 359z" />
<glyph unicode="K" horiz-adv-x="6121" d="M164 0v1389h174v-586h4436q177 0 293 17t182.5 55.5t92.5 90.5t26 130v293h174v-293q0 -197 -113 -301q324 -18 477.5 -125t153.5 -332v-338h-172v338q0 78 -26 130t-92.5 89.5t-183 54.5t-294.5 17h-4954v-629h-174z" />
<glyph unicode="L" horiz-adv-x="6023" d="M164 467v922h174v-922q0 -106 49 -167t180 -93.5t365 -32.5h5040v-174h-5040q-400 0 -584 108t-184 359z" />
<glyph unicode="M" horiz-adv-x="6662" d="M164 0v1303q0 86 86 86h5501q400 0 584 -108t184 -359v-922h-174v922q0 78 -26 130t-92.5 90t-182.5 55t-293 17h-2329v-1214h-172v1214h-2912v-1214h-174z" />
<glyph unicode="N" horiz-adv-x="6148" d="M143 0v922q0 251 184 359t584 108h4326q400 0 584 -108t184 -359v-922h-174v922q0 78 -26 130t-92.5 90t-182.5 55t-293 17h-4326q-177 0 -293 -17t-182.5 -55t-92.5 -90t-26 -130v-922h-174z" />
<glyph unicode="O" d="M123 467v455q0 251 184 359t584 108h4325q400 0 584 -108t184 -359v-455q0 -251 -184 -359t-584 -108h-4325q-400 0 -584 108t-184 359zM297 467q0 -106 49 -167t180 -93.5t365 -32.5h4325q234 0 365 32.5t180 93.5t49 167v455q0 78 -26 130t-92.5 90t-182.5 55t-293 17 h-4325q-177 0 -293 -17t-182.5 -55t-92.5 -90t-26 -130v-455z" />
<glyph unicode="P" horiz-adv-x="6115" d="M164 0v1303q0 86 86 86h5120q185 0 314.5 -23t205 -69t109.5 -108t34 -147v-131q0 -85 -34 -147t-110 -107.5t-205 -68.5t-314 -23h-5032v-565h-174zM338 739h5032q183 0 290.5 18.5t153 55.5t45.5 98v131q0 61 -45.5 98t-153 55.5t-290.5 18.5h-5032v-475z" />
<glyph unicode="Q" d="M123 467v455q0 251 184 359t584 108h4325q400 0 584 -108t184 -359v-455q0 -244 -174 -353t-551 -114l441 -197l-88 -149l-768 346h-3953q-400 0 -584 108t-184 359zM297 467q0 -106 49 -167t180 -93.5t365 -32.5h4325q234 0 365 32.5t180 93.5t49 167v455q0 78 -26 130 t-92.5 90t-182.5 55t-293 17h-4325q-177 0 -293 -17t-182.5 -55t-92.5 -90t-26 -130v-455z" />
<glyph unicode="R" horiz-adv-x="6176" d="M164 0v1303q0 86 86 86h5132q185 0 314.5 -23t205.5 -69t110 -108t34 -147v-92q0 -94 -73 -156.5t-202 -86.5q128 -25 201.5 -88.5t73.5 -155.5v-463h-174v463q0 50 -49 83t-173.5 52.5t-328.5 19.5h-4983v-618h-174zM338 793h4983q205 0 329 19.5t173 53t49 84.5v92 q0 61 -46 98t-153.5 55.5t-290.5 18.5h-5044v-421z" />
<glyph unicode="S" horiz-adv-x="6148" d="M104 973v69q0 85 34 147t110 108t205.5 69t314.5 23h5247v-175h-5247q-183 0 -290.5 -18.5t-153 -55.5t-45.5 -98v-69q0 -61 45.5 -98t153 -55.5t290.5 -18.5h4624q148 0 260 -15t188 -43t124 -71t69 -95.5t21 -119.5v-111q0 -85 -34 -147t-110 -107.5t-205 -68.5 t-313 -23h-5224v174h5224q183 0 290.5 18t153.5 55t46 99v111q0 61 -46 98t-153.5 55.5t-290.5 18.5h-4624q-185 0 -314.5 22.5t-205.5 68t-110 107t-34 146.5z" />
<glyph unicode="T" horiz-adv-x="6019" d="M41 1214v175h5937v-175h-2871v-1214h-174v1214h-2892z" />
<glyph unicode="U" horiz-adv-x="6109" d="M143 467v922h174v-922q0 -106 49 -167t180 -93.5t365 -32.5h4287q234 0 365 32.5t180 93.5t49 167v922h174v-922q0 -251 -184 -359t-584 -108h-4287q-400 0 -584 108t-184 359z" />
<glyph unicode="V" horiz-adv-x="5619" d="M41 1296l74 156l2574 -1270q24 -8 45 -8h152q21 0 45 8l2574 1270l74 -156l-2591 -1276q-41 -20 -88 -20h-180q-47 0 -88 20z" />
<glyph unicode="W" horiz-adv-x="6569" d="M143 467v922h174v-922q0 -106 49 -167t180 -93.5t365 -32.5h2288v1215h172v-1215h2288q234 0 365 32.5t180 93.5t49 167v922h174v-922q0 -251 -184 -359t-584 -108h-4748q-400 0 -584 108t-184 359z" />
<glyph unicode="X" horiz-adv-x="6615" d="M131 0v463q0 92 73 155.5t202 88.5q-130 24 -202.5 86.5t-72.5 156.5v439h172v-439q0 -51 49 -84.5t173.5 -53t330.5 -19.5h4903q206 0 330 19.5t172.5 53t48.5 84.5v439h174v-439q0 -94 -72.5 -156.5t-201.5 -86.5q129 -25 201.5 -88t72.5 -156v-463h-174v463 q0 38 -27.5 65.5t-89.5 49t-170.5 32.5t-263.5 11h-4903q-205 0 -330 -20t-174 -54t-49 -84v-463h-172z" />
<glyph unicode="Y" horiz-adv-x="6027" d="M102 1051v338h174v-338q0 -78 26 -130t92.5 -90.5t182.5 -55.5t293 -17h4285q143 0 245.5 11.5t170.5 34t108 59t56 81.5t16 107v338h174v-338q0 -251 -184 -358t-586 -107h-2054v-586h-174v586h-2057q-400 0 -584 107t-184 358z" />
<glyph unicode="Z" horiz-adv-x="6135" d="M119 145v52q0 81 38.5 119.5t129.5 52.5l5486 825q15 3 15 10q0 10 -15 10h-5619v175h5619q97 0 142 -36.5t45 -111.5v-49q0 -84 -38 -122t-130 -50l-5489 -825q-12 -2 -12 -13q0 -8 12 -8h5728v-174h-5726q-98 0 -142 36t-44 109z" />
<glyph unicode="[" horiz-adv-x="708" d="M266 -297v1974h381v-129h-235v-1716h235v-129h-381z" />
<glyph unicode="\" horiz-adv-x="2801" d="M164 1491l104 139l2370 -1784l-105 -141z" />
<glyph unicode="]" horiz-adv-x="708" d="M61 -168h236v1716h-236v129h381v-1974h-381v129z" />
<glyph unicode="^" horiz-adv-x="1261" d="M106 352l463 1037h117l467 -1037h-152l-372 858l-371 -858h-152z" />
<glyph unicode="_" horiz-adv-x="1736" d="M-18 -162h1763v-182h-1763v182z" />
<glyph unicode="`" horiz-adv-x="1073" d="M164 1765v162l745 -319v-129z" />
<glyph unicode="a" horiz-adv-x="6223" d="M164 0v1303q0 86 86 86h5724q86 0 86 -86v-1303h-172v608h-5550v-608h-174zM338 782h5550v432h-5550v-432z" />
<glyph unicode="b" horiz-adv-x="6148" d="M164 86v1217q0 86 86 86h5132q185 0 314.5 -23t205.5 -69t110 -108t34 -147v-92q0 -94 -73 -156.5t-202 -86.5q128 -25 201.5 -88.5t73.5 -155.5v-117q0 -85 -34 -147t-110 -107.5t-205.5 -68.5t-314.5 -23h-5132q-86 0 -86 86zM338 174h5044q183 0 290.5 18t153.5 55 t46 99v117q0 37 -27.5 65t-90 49.5t-171 32.5t-262.5 11h-4983v-447zM338 793h4983q205 0 329 19.5t173 53t49 84.5v92q0 61 -46 98t-153.5 55.5t-290.5 18.5h-5044v-421z" />
<glyph unicode="c" horiz-adv-x="5892" d="M123 467v455q0 251 184 359t584 108h4934v-175h-4934q-177 0 -293 -17t-182.5 -55t-92.5 -90t-26 -130v-455q0 -106 49 -167t180 -93.5t365 -32.5h4934v-174h-4934q-400 0 -584 108t-184 359z" />
<glyph unicode="d" horiz-adv-x="6182" d="M164 86v1217q0 86 86 86h5042q400 0 584 -108t184 -359v-455q0 -251 -184 -359t-584 -108h-5042q-86 0 -86 86zM338 174h4954q235 0 366.5 32.5t180.5 93.5t49 167v455q0 78 -26 130t-92.5 90t-183 55t-294.5 17h-4954v-1040z" />
<glyph unicode="e" horiz-adv-x="6135" d="M123 467v455q0 251 184 359t584 108h5108v-175h-5108q-177 0 -293 -17t-182.5 -55t-92.5 -90t-26 -130v-123h5681v-172h-5681v-160q0 -106 49 -167t180 -93.5t365 -32.5h5110v-174h-5110q-400 0 -584 108t-184 359z" />
<glyph unicode="f" horiz-adv-x="6039" d="M164 0v922q0 251 184 359t584 108h5040v-175h-5040q-177 0 -293 -17t-182.5 -55t-92.5 -90t-26 -130v-152h5609v-174h-5609v-596h-174z" />
<glyph unicode="g" horiz-adv-x="6158" d="M123 467v455q0 251 184 359t584 108h5046v-175h-5046q-177 0 -293 -17t-182.5 -55t-92.5 -90t-26 -130v-455q0 -106 49 -167t180 -93.5t365 -32.5h4530q183 0 290.5 18t153.5 55t46 99v119q0 91 -109.5 130.5t-380.5 39.5h-2113v174h2113q185 0 314.5 -23t205.5 -68.5 t110 -107t34 -145.5v-119q0 -85 -34 -147t-110 -107.5t-205.5 -68.5t-314.5 -23h-4530q-400 0 -584 108t-184 359z" />
<glyph unicode="h" horiz-adv-x="6268" d="M164 0v1389h174v-586h5595v586h172v-1389h-172v629h-5595v-629h-174z" />
<glyph unicode="i" horiz-adv-x="542" d="M184 0v1389h174v-1389h-174z" />
<glyph unicode="j" horiz-adv-x="5206" d="M61 467v192h175v-192q0 -106 48.5 -167t179.5 -93.5t365 -32.5h3466q234 0 365 32.5t180 93.5t49 167v922h174v-922q0 -251 -184 -359t-584 -108h-3466q-400 0 -584 108t-184 359z" />
<glyph unicode="k" horiz-adv-x="6121" d="M164 0v1389h174v-586h4436q177 0 293 17t182.5 55.5t92.5 90.5t26 130v293h174v-293q0 -197 -113 -301q324 -18 477.5 -125t153.5 -332v-338h-172v338q0 78 -26 130t-92.5 89.5t-183 54.5t-294.5 17h-4954v-629h-174z" />
<glyph unicode="l" horiz-adv-x="6023" d="M164 467v922h174v-922q0 -106 49 -167t180 -93.5t365 -32.5h5040v-174h-5040q-400 0 -584 108t-184 359z" />
<glyph unicode="m" horiz-adv-x="6662" d="M164 0v1303q0 86 86 86h5501q400 0 584 -108t184 -359v-922h-174v922q0 78 -26 130t-92.5 90t-182.5 55t-293 17h-2329v-1214h-172v1214h-2912v-1214h-174z" />
<glyph unicode="n" horiz-adv-x="6148" d="M143 0v922q0 251 184 359t584 108h4326q400 0 584 -108t184 -359v-922h-174v922q0 78 -26 130t-92.5 90t-182.5 55t-293 17h-4326q-177 0 -293 -17t-182.5 -55t-92.5 -90t-26 -130v-922h-174z" />
<glyph unicode="o" d="M123 467v455q0 251 184 359t584 108h4325q400 0 584 -108t184 -359v-455q0 -251 -184 -359t-584 -108h-4325q-400 0 -584 108t-184 359zM297 467q0 -106 49 -167t180 -93.5t365 -32.5h4325q234 0 365 32.5t180 93.5t49 167v455q0 78 -26 130t-92.5 90t-182.5 55t-293 17 h-4325q-177 0 -293 -17t-182.5 -55t-92.5 -90t-26 -130v-455z" />
<glyph unicode="p" horiz-adv-x="6115" d="M164 0v1303q0 86 86 86h5120q185 0 314.5 -23t205 -69t109.5 -108t34 -147v-131q0 -85 -34 -147t-110 -107.5t-205 -68.5t-314 -23h-5032v-565h-174zM338 739h5032q183 0 290.5 18.5t153 55.5t45.5 98v131q0 61 -45.5 98t-153 55.5t-290.5 18.5h-5032v-475z" />
<glyph unicode="q" d="M123 467v455q0 251 184 359t584 108h4325q400 0 584 -108t184 -359v-455q0 -244 -174 -353t-551 -114l441 -197l-88 -149l-768 346h-3953q-400 0 -584 108t-184 359zM297 467q0 -106 49 -167t180 -93.5t365 -32.5h4325q234 0 365 32.5t180 93.5t49 167v455q0 78 -26 130 t-92.5 90t-182.5 55t-293 17h-4325q-177 0 -293 -17t-182.5 -55t-92.5 -90t-26 -130v-455z" />
<glyph unicode="r" horiz-adv-x="6176" d="M164 0v1303q0 86 86 86h5132q185 0 314.5 -23t205.5 -69t110 -108t34 -147v-92q0 -94 -73 -156.5t-202 -86.5q128 -25 201.5 -88.5t73.5 -155.5v-463h-174v463q0 50 -49 83t-173.5 52.5t-328.5 19.5h-4983v-618h-174zM338 793h4983q205 0 329 19.5t173 53t49 84.5v92 q0 61 -46 98t-153.5 55.5t-290.5 18.5h-5044v-421z" />
<glyph unicode="s" horiz-adv-x="6148" d="M104 973v69q0 85 34 147t110 108t205.5 69t314.5 23h5247v-175h-5247q-183 0 -290.5 -18.5t-153 -55.5t-45.5 -98v-69q0 -61 45.5 -98t153 -55.5t290.5 -18.5h4624q148 0 260 -15t188 -43t124 -71t69 -95.5t21 -119.5v-111q0 -85 -34 -147t-110 -107.5t-205 -68.5 t-313 -23h-5224v174h5224q183 0 290.5 18t153.5 55t46 99v111q0 61 -46 98t-153.5 55.5t-290.5 18.5h-4624q-185 0 -314.5 22.5t-205.5 68t-110 107t-34 146.5z" />
<glyph unicode="t" horiz-adv-x="6019" d="M41 1214v175h5937v-175h-2871v-1214h-174v1214h-2892z" />
<glyph unicode="u" horiz-adv-x="6109" d="M143 467v922h174v-922q0 -106 49 -167t180 -93.5t365 -32.5h4287q234 0 365 32.5t180 93.5t49 167v922h174v-922q0 -251 -184 -359t-584 -108h-4287q-400 0 -584 108t-184 359z" />
<glyph unicode="v" horiz-adv-x="5619" d="M41 1296l74 156l2574 -1270q24 -8 45 -8h152q21 0 45 8l2574 1270l74 -156l-2591 -1276q-41 -20 -88 -20h-180q-47 0 -88 20z" />
<glyph unicode="w" horiz-adv-x="6569" d="M143 467v922h174v-922q0 -106 49 -167t180 -93.5t365 -32.5h2288v1215h172v-1215h2288q234 0 365 32.5t180 93.5t49 167v922h174v-922q0 -251 -184 -359t-584 -108h-4748q-400 0 -584 108t-184 359z" />
<glyph unicode="x" horiz-adv-x="6615" d="M131 0v463q0 92 73 155.5t202 88.5q-130 24 -202.5 86.5t-72.5 156.5v439h172v-439q0 -51 49 -84.5t173.5 -53t330.5 -19.5h4903q206 0 330 19.5t172.5 53t48.5 84.5v439h174v-439q0 -94 -72.5 -156.5t-201.5 -86.5q129 -25 201.5 -88t72.5 -156v-463h-174v463 q0 38 -27.5 65.5t-89.5 49t-170.5 32.5t-263.5 11h-4903q-205 0 -330 -20t-174 -54t-49 -84v-463h-172z" />
<glyph unicode="y" horiz-adv-x="6027" d="M102 1051v338h174v-338q0 -78 26 -130t92.5 -90.5t182.5 -55.5t293 -17h4285q143 0 245.5 11.5t170.5 34t108 59t56 81.5t16 107v338h174v-338q0 -251 -184 -358t-586 -107h-2054v-586h-174v586h-2057q-400 0 -584 107t-184 358z" />
<glyph unicode="z" horiz-adv-x="6135" d="M125 145v52q0 81 38.5 119.5t129.5 52.5l5486 825q15 3 15 10q0 10 -15 10h-5619v175h5619q97 0 142 -36.5t45 -111.5v-49q0 -84 -38 -122t-130 -50l-5489 -825q-12 -2 -12 -13q0 -8 12 -8h5729v-174h-5727q-98 0 -142 36t-44 109z" />
<glyph unicode="{" horiz-adv-x="708" d="M106 633v115h25q44 0 67 29t23 81v418q0 398 426 401v-131q-161 -4 -220.5 -62t-59.5 -208v-438q0 -65 -20.5 -99.5t-65.5 -48.5q86 -23 86 -149v-437q0 -150 59.5 -208t220.5 -62v-131q-426 3 -426 401v416q0 54 -23.5 83.5t-66.5 29.5h-25z" />
<glyph unicode="|" horiz-adv-x="473" d="M164 -297v1974h145v-1974h-145z" />
<glyph unicode="}" horiz-adv-x="708" d="M61 -166q161 4 221 62t60 208v437q0 126 86 149q-45 14 -65.5 48.5t-20.5 99.5v438q0 150 -60 208t-221 62v131q426 -3 426 -401v-418q0 -52 23.5 -81t67.5 -29h24v-115h-24q-43 0 -67 -29.5t-24 -83.5v-416q0 -398 -426 -401v131z" />
<glyph unicode="~" horiz-adv-x="1363" d="M164 594v154l258 90q19 8 39 8q8 0 24 -4l383 -105q16 -4 25 -4q7 0 25 6l282 99v-154l-258 -88q-23 -10 -39 -10q-19 0 -37 6l-370 102q-20 4 -25 4q-9 0 -27 -6z" />
<glyph unicode="&#xa1;" horiz-adv-x="501" d="M164 -307v954h174v-954h-174zM164 770v309h174v-309h-174z" />
<glyph unicode="&#xa2;" horiz-adv-x="2703" d="M102 377v635q0 106 46.5 155.5t160.5 49.5h1032v172h156v-172h1159v-158h-2320q-38 0 -51 -16t-13 -58v-577q0 -40 13.5 -55t50.5 -15h2320v-164h-1159v-174h-156v174h-1030q-113 0 -161 49t-48 154z" />
<glyph unicode="&#xa3;" horiz-adv-x="1585" d="M86 0v174h221v481h-221v146h221v383q0 107 42 154.5t147 47.5h977v-172h-895q-56 0 -71 -17.5t-15 -80.5v-315h968v-146h-968v-481h999v-174h-1405z" />
<glyph unicode="&#xa4;" horiz-adv-x="1255" d="M164 322l217 215v309l-217 217l96 96l213 -217h309l213 217l97 -96l-220 -217v-309l220 -215l-97 -99l-213 219h-309l-213 -219zM508 567h240v248h-240v-248z" />
<glyph unicode="&#xa5;" horiz-adv-x="1701" d="M68 1386v3h213l577 -531l576 531h198q-135 -127 -383.5 -362t-312.5 -296h528v-121h-528v-202h528v-121h-528v-287h-172v287h-528v121h528v202h-528v121h528z" />
<glyph unicode="&#xa6;" horiz-adv-x="473" d="M164 -297v746h145v-746h-145zM164 932v745h145v-745h-145z" />
<glyph unicode="&#xa7;" horiz-adv-x="1492" d="M164 219v965q0 107 42 154.5t146 47.5h969v-145h-901q-60 0 -79 -23t-19 -96v-260h819q103 0 145.5 -48t42.5 -155v-981q0 -107 -42 -154.5t-146 -47.5h-959v149h883q65 0 85.5 24.5t20.5 94.5v272h-819q-103 0 -145.5 48t-42.5 155zM322 279q0 -68 17.5 -90.5 t76.5 -22.5h755v444q0 65 -19.5 86t-84.5 21h-745v-438z" />
<glyph unicode="&#xa8;" horiz-adv-x="1159" d="M164 1513v312h188v-312h-188zM809 1513v312h186v-312h-186z" />
<glyph unicode="&#xaa;" horiz-adv-x="3483" d="M127 618v713q0 58 57 58h3074q60 0 60 -58v-713h-117v326h-2955v-326h-119zM246 1063h2955v207h-2955v-207z" />
<glyph unicode="&#xab;" horiz-adv-x="1253" d="M31 723l452 455l113 -107l-363 -348l363 -350l-113 -107zM657 723l453 455l113 -107l-363 -348l363 -350l-113 -107z" />
<glyph unicode="&#xac;" horiz-adv-x="1363" d="M164 717v145h1036v-708h-143v563h-893z" />
<glyph unicode="&#xad;" horiz-adv-x="1374" d="M164 639v182h1046v-182h-1046z" />
<glyph unicode="&#xaf;" horiz-adv-x="1257" d="M164 1636v131h930v-131h-930z" />
<glyph unicode="&#xb0;" horiz-adv-x="864" d="M164 987v277q0 67 27 96t94 29h293q68 0 95 -29t27 -96v-277q0 -67 -27 -96t-95 -29h-293q-67 0 -94 29t-27 96zM270 1014q0 -49 47 -49h228q45 0 45 49v225q0 27 -10.5 39t-34.5 12h-226q-26 0 -37.5 -12.5t-11.5 -40.5v-223z" />
<glyph unicode="&#xb1;" horiz-adv-x="1363" d="M164 0v143h1036v-143h-1036zM164 645v143h446v447h144v-447h446v-143h-446v-448h-144v448h-446z" />
<glyph unicode="&#xb2;" horiz-adv-x="3049" d="M102 817v60q0 65 33.5 107t116 65.5t219.5 23.5h2075q139 0 194.5 18.5t55.5 61.5v37q0 43 -55.5 61.5t-194.5 18.5h-2423v119h2423q201 0 284.5 -49.5t83.5 -149.5v-37q0 -100 -83 -148.5t-285 -48.5h-2075q-140 0 -196 -18.5t-56 -60.5v-60q0 -43 56 -61.5t196 -18.5 h2408v-119h-2408q-201 0 -285 49.5t-84 149.5z" />
<glyph unicode="&#xb3;" horiz-adv-x="3004" d="M88 618v119h2417q138 0 195 18.5t57 61.5v62q0 73 -285 73h-2361v117h2361q285 0 285 72v49q0 43 -57 61.5t-195 18.5h-2413v119h2413q199 0 282.5 -49.5t83.5 -149.5v-49q0 -92 -108 -131q51 -19 79.5 -53t28.5 -78v-62q0 -100 -83.5 -149.5t-282.5 -49.5h-2417z" />
<glyph unicode="&#xb4;" horiz-adv-x="1073" d="M164 1477v129l745 321v-160z" />
<glyph unicode="&#xb6;" horiz-adv-x="1925" d="M61 805v362q0 112 48.5 165.5t162.5 53.5h1579v-143h-239v-1593h-166v1593h-553v-1593h-166v936h-459q-207 0 -207 219zM227 856q0 -72 20 -96.5t79 -24.5h401v508h-393q-70 0 -88.5 -22t-18.5 -105v-260z" />
<glyph unicode="&#xb7;" horiz-adv-x="501" d="M164 553v354h174v-354h-174z" />
<glyph unicode="&#xb8;" horiz-adv-x="526" d="M164 -528l53 184q12 44 12 108v113h174v-123q0 -47 -20 -106l-59 -176h-160z" />
<glyph unicode="&#xb9;" horiz-adv-x="958" d="M90 1270v119h344q220 0 322 -61.5t102 -201.5v-508h-119v508q0 52 -25 82t-92.5 46t-187.5 16h-344z" />
<glyph unicode="&#xba;" horiz-adv-x="3420" d="M104 881v245q0 141 101.5 202t322.5 61h2325q220 0 322 -61.5t102 -201.5v-245q0 -140 -102 -201.5t-322 -61.5h-2325q-221 0 -322.5 61t-101.5 202zM223 881q0 -52 25 -82t92 -46t188 -16h2325q121 0 188 16t92 46t25 82v245q0 52 -25 82t-92.5 46t-187.5 16h-2325 q-120 0 -187.5 -16t-92.5 -46t-25 -82v-245z" />
<glyph unicode="&#xbb;" horiz-adv-x="1253" d="M31 373l362 350l-362 348l112 107l453 -455l-453 -457zM657 373l363 350l-363 348l113 107l453 -455l-453 -457z" />
<glyph unicode="&#xbc;" horiz-adv-x="4149" d="M123 1270v119h344q220 0 322 -61.5t102 -201.5v-508h-119v508q0 52 -25 82t-92.5 46t-187.5 16h-344zM395 96l1729 1293l65 -95l-1726 -1294zM1210 373q0 45 54 55l2029 360v-358h733v-117h-733v-313h-119v313h-1902q-27 0 -44.5 17.5t-17.5 42.5zM1853 430h1321v225z " />
<glyph unicode="&#xbd;" horiz-adv-x="4630" d="M123 1270v119h344q220 0 322 -61.5t102 -201.5v-508h-119v508q0 52 -25 82t-92.5 46t-187.5 16h-344zM395 96l1729 1293l65 -95l-1726 -1294zM1696 199v59q0 99 83.5 148t284.5 49h2075q139 0 194.5 18.5t55.5 61.5v36q0 43 -55.5 61.5t-194.5 18.5h-2423v119h2423 q201 0 285 -49.5t84 -149.5v-36q0 -100 -83.5 -148.5t-285.5 -48.5h-2075q-139 0 -195.5 -19t-56.5 -61v-59q0 -43 56 -61.5t196 -18.5h2409v-119h-2409q-201 0 -284.5 49.5t-83.5 149.5z" />
<glyph unicode="&#xbe;" horiz-adv-x="6197" d="M123 618v119h2417q138 0 194.5 18.5t56.5 61.5v62q0 73 -284 73h-2362v117h2362q153 0 218.5 18t65.5 54v49q0 43 -56.5 61.5t-194.5 18.5h-2413v119h2413q199 0 282.5 -49.5t83.5 -149.5v-49q0 -92 -108 -131q51 -19 79.5 -53t28.5 -78v-62q0 -100 -83.5 -149.5 t-282.5 -49.5h-2417zM2443 96l1729 1293l65 -95l-1726 -1294zM3258 373q0 45 54 55l2029 360v-358h733v-117h-733v-313h-119v313h-1902q-27 0 -44.5 17.5t-17.5 42.5zM3901 430h1321v225z" />
<glyph unicode="&#xbf;" horiz-adv-x="3872" d="M74 39v45q0 85 33.5 146.5t110 107t205.5 68t314 22.5h2351q183 0 290.5 18.5t153.5 55.5t46 98v43h172v-43q0 -67 -21 -119.5t-69 -95.5t-124 -71t-188 -43t-260 -15h-2351q-183 0 -290.5 -18.5t-153 -55.5t-45.5 -98v-45q0 -61 45.5 -98t153 -55.5t290.5 -18.5h2974 v-174h-2974q-185 0 -314 23t-205 68.5t-110 107.5t-34 147zM3576 727v354h174v-354h-174z" />
<glyph unicode="&#xc0;" horiz-adv-x="6223" d="M164 0v1303q0 86 86 86h5724q86 0 86 -86v-1303h-172v608h-5550v-608h-174zM338 782h5550v432h-5550v-432zM2636 1765v162l745 -319v-129z" />
<glyph unicode="&#xc1;" horiz-adv-x="6223" d="M164 0v1303q0 86 86 86h5724q86 0 86 -86v-1303h-172v608h-5550v-608h-174zM338 782h5550v432h-5550v-432zM2841 1477v129l745 321v-160z" />
<glyph unicode="&#xc2;" horiz-adv-x="6223" d="M164 0v1303q0 86 86 86h5724q86 0 86 -86v-1303h-172v608h-5550v-608h-174zM338 782h5550v432h-5550v-432zM2621 1462v49q0 41 10 62.5t40 46.5l368 307h146l368 -307q30 -24 39.5 -45.5t9.5 -63.5v-49h-145v41q0 26 -7.5 41.5t-27.5 32.5l-307 252l-305 -252 q-20 -17 -26.5 -32t-6.5 -42v-41h-156z" />
<glyph unicode="&#xc3;" horiz-adv-x="6223" d="M164 0v1303q0 86 86 86h5724q86 0 86 -86v-1303h-172v608h-5550v-608h-174zM338 782h5550v432h-5550v-432zM2685 1636v131h854v-131h-854z" />
<glyph unicode="&#xc4;" horiz-adv-x="6223" d="M164 0v1303q0 86 86 86h5724q86 0 86 -86v-1303h-172v608h-5550v-608h-174zM338 782h5550v432h-5550v-432zM2695 1513v312h189v-312h-189zM3340 1513v312h187v-312h-187z" />
<glyph unicode="&#xc5;" horiz-adv-x="6223" d="M164 0v1303q0 86 86 86h5724q86 0 86 -86v-1303h-172v608h-5550v-608h-174zM338 782h5550v432h-5550v-432zM2873 1587v215q0 67 27 96t94 29h236q68 0 94.5 -29t26.5 -96v-215q0 -67 -26.5 -96t-94.5 -29h-236q-67 0 -94 29t-27 96zM2978 1616q0 -32 8.5 -41.5t38.5 -9.5 h176q28 0 36.5 9.5t8.5 41.5v166q0 30 -8 38.5t-35 8.5h-182q-27 0 -35 -9t-8 -42v-162z" />
<glyph unicode="&#xc6;" horiz-adv-x="11079" d="M164 0v1303q0 86 86 86h5314q86 0 86 -86v-29q180 115 594 115h4698v-175h-4698q-228 0 -358.5 -31.5t-181.5 -89.5t-54 -157v-115h5272v-182h-5272v-172q0 -106 49 -167t180 -93.5t365 -32.5h4701v-174h-4701q-414 0 -594 115v-115h-172v639h-5140v-639h-174zM338 821 h5140v393h-5140v-393z" />
<glyph unicode="&#xc7;" horiz-adv-x="5892" d="M123 467v455q0 251 184 359t584 108h4934v-175h-4934q-177 0 -293 -17t-182.5 -55t-92.5 -90t-26 -130v-455q0 -106 49 -167t180 -93.5t365 -32.5h4934v-174h-4934q-400 0 -584 108t-184 359zM2826 -528l53 184q13 48 13 108v113h174v-123q0 -44 -21 -106l-59 -176h-160z " />
<glyph unicode="&#xc8;" horiz-adv-x="6135" d="M123 467v455q0 251 184 359t584 108h5108v-175h-5108q-177 0 -293 -17t-182.5 -55t-92.5 -90t-26 -130v-123h5681v-172h-5681v-160q0 -106 49 -167t180 -93.5t365 -32.5h5110v-174h-5110q-400 0 -584 108t-184 359zM2593 1765v162l745 -319v-129z" />
<glyph unicode="&#xc9;" horiz-adv-x="6135" d="M123 467v455q0 251 184 359t584 108h5108v-175h-5108q-177 0 -293 -17t-182.5 -55t-92.5 -90t-26 -130v-123h5681v-172h-5681v-160q0 -106 49 -167t180 -93.5t365 -32.5h5110v-174h-5110q-400 0 -584 108t-184 359zM2798 1477v129l745 321v-160z" />
<glyph unicode="&#xca;" horiz-adv-x="6135" d="M123 467v455q0 251 184 359t584 108h5108v-175h-5108q-177 0 -293 -17t-182.5 -55t-92.5 -90t-26 -130v-123h5681v-172h-5681v-160q0 -106 49 -167t180 -93.5t365 -32.5h5110v-174h-5110q-400 0 -584 108t-184 359zM2576 1462v49q0 41 10 62.5t40 46.5l368 307h146 l368 -307q30 -24 39.5 -45.5t9.5 -63.5v-49h-145v41q0 26 -7.5 41.5t-27.5 32.5l-307 252l-305 -252q-20 -17 -26.5 -32t-6.5 -42v-41h-156z" />
<glyph unicode="&#xcb;" horiz-adv-x="6135" d="M123 467v455q0 251 184 359t584 108h5108v-175h-5108q-177 0 -293 -17t-182.5 -55t-92.5 -90t-26 -130v-123h5681v-172h-5681v-160q0 -106 49 -167t180 -93.5t365 -32.5h5110v-174h-5110q-400 0 -584 108t-184 359zM2652 1513v312h189v-312h-189zM3297 1513v312h187v-312 h-187z" />
<glyph unicode="&#xcc;" horiz-adv-x="638" d="M-106 1765v162l745 -319v-129zM281 0v1389h174v-1389h-174z" />
<glyph unicode="&#xcd;" horiz-adv-x="647" d="M2 1477v129l746 321v-160zM184 0v1389h174v-1389h-174z" />
<glyph unicode="&#xce;" horiz-adv-x="831" d="M-74 1462v49q0 41 10 62.5t39 46.5l369 307h145l369 -307q30 -24 39.5 -45.5t9.5 -63.5v-49h-145v41q0 26 -7.5 41.5t-27.5 32.5l-307 252l-305 -252q-20 -17 -26.5 -32t-6.5 -42v-41h-156zM330 0v1389h174v-1389h-174z" />
<glyph unicode="&#xcf;" horiz-adv-x="696" d="M-68 1513v312h189v-312h-189zM260 0v1389h174v-1389h-174zM578 1513v312h186v-312h-186z" />
<glyph unicode="&#xd0;" horiz-adv-x="6262" d="M80 627v172h164v504q0 86 86 86h5042q400 0 584 -108t184 -359v-455q0 -251 -184 -359t-584 -108h-5042q-86 0 -86 86v541h-164zM418 174h4954q235 0 366.5 32.5t180.5 93.5t49 167v455q0 78 -26 130t-92.5 90t-183 55t-294.5 17h-4954v-415h2402v-172h-2402v-453z" />
<glyph unicode="&#xd1;" horiz-adv-x="6148" d="M143 0v922q0 251 184 359t584 108h4326q400 0 584 -108t184 -359v-922h-174v922q0 78 -26 130t-92.5 90t-182.5 55t-293 17h-4326q-177 0 -293 -17t-182.5 -55t-92.5 -90t-26 -130v-922h-174zM2646 1636v131h854v-131h-854z" />
<glyph unicode="&#xd2;" d="M123 467v455q0 251 184 359t584 108h4325q400 0 584 -108t184 -359v-455q0 -251 -184 -359t-584 -108h-4325q-400 0 -584 108t-184 359zM297 467q0 -106 49 -167t180 -93.5t365 -32.5h4325q234 0 365 32.5t180 93.5t49 167v455q0 78 -26 130t-92.5 90t-182.5 55t-293 17 h-4325q-177 0 -293 -17t-182.5 -55t-92.5 -90t-26 -130v-455zM2578 1765v162l746 -319v-129z" />
<glyph unicode="&#xd3;" d="M123 467v455q0 251 184 359t584 108h4325q400 0 584 -108t184 -359v-455q0 -251 -184 -359t-584 -108h-4325q-400 0 -584 108t-184 359zM297 467q0 -106 49 -167t180 -93.5t365 -32.5h4325q234 0 365 32.5t180 93.5t49 167v455q0 78 -26 130t-92.5 90t-182.5 55t-293 17 h-4325q-177 0 -293 -17t-182.5 -55t-92.5 -90t-26 -130v-455zM2783 1477v129l746 321v-160z" />
<glyph unicode="&#xd4;" d="M123 467v455q0 251 184 359t584 108h4325q400 0 584 -108t184 -359v-455q0 -251 -184 -359t-584 -108h-4325q-400 0 -584 108t-184 359zM297 467q0 -106 49 -167t180 -93.5t365 -32.5h4325q234 0 365 32.5t180 93.5t49 167v455q0 78 -26 130t-92.5 90t-182.5 55t-293 17 h-4325q-177 0 -293 -17t-182.5 -55t-92.5 -90t-26 -130v-455zM2562 1462v49q0 41 10 62.5t39 46.5l369 307h145l369 -307q30 -24 39.5 -45.5t9.5 -63.5v-49h-145v41q0 26 -7.5 41.5t-27.5 32.5l-307 252l-306 -252q-20 -17 -26 -32t-6 -42v-41h-156z" />
<glyph unicode="&#xd5;" d="M123 467v455q0 251 184 359t584 108h4325q400 0 584 -108t184 -359v-455q0 -251 -184 -359t-584 -108h-4325q-400 0 -584 108t-184 359zM297 467q0 -106 49 -167t180 -93.5t365 -32.5h4325q234 0 365 32.5t180 93.5t49 167v455q0 78 -26 130t-92.5 90t-182.5 55t-293 17 h-4325q-177 0 -293 -17t-182.5 -55t-92.5 -90t-26 -130v-455zM2626 1636v131h854v-131h-854z" />
<glyph unicode="&#xd6;" d="M123 467v455q0 251 184 359t584 108h4325q400 0 584 -108t184 -359v-455q0 -251 -184 -359t-584 -108h-4325q-400 0 -584 108t-184 359zM297 467q0 -106 49 -167t180 -93.5t365 -32.5h4325q234 0 365 32.5t180 93.5t49 167v455q0 78 -26 130t-92.5 90t-182.5 55t-293 17 h-4325q-177 0 -293 -17t-182.5 -55t-92.5 -90t-26 -130v-455zM2638 1513v312h188v-312h-188zM3283 1513v312h186v-312h-186z" />
<glyph unicode="&#xd7;" horiz-adv-x="1163" d="M164 399l317 318l-315 315l102 101l316 -316l315 316l100 -101l-315 -315l315 -316l-100 -102l-315 315l-318 -317z" />
<glyph unicode="&#xd8;" d="M123 467v455q0 251 184 359t584 108h2974l321 241l105 -139l-138 -102h1063q400 0 584 -108t184 -359v-455q0 -251 -184 -359t-584 -108h-2904l-391 -295l-106 141l202 154h-1126q-400 0 -584 108t-184 359zM297 467q0 -106 49 -167t180 -93.5t365 -32.5h1358l1384 1040 h-2742q-177 0 -293 -17t-182.5 -55t-92.5 -90t-26 -130v-455zM2544 174h2672q234 0 365 32.5t180 93.5t49 167v455q0 78 -26 130t-92.5 90t-182.5 55t-293 17h-1292z" />
<glyph unicode="&#xd9;" horiz-adv-x="6109" d="M143 467v922h174v-922q0 -106 49 -167t180 -93.5t365 -32.5h4287q234 0 365 32.5t180 93.5t49 167v922h174v-922q0 -251 -184 -359t-584 -108h-4287q-400 0 -584 108t-184 359zM2578 1765v162l746 -319v-129z" />
<glyph unicode="&#xda;" horiz-adv-x="6109" d="M143 467v922h174v-922q0 -106 49 -167t180 -93.5t365 -32.5h4287q234 0 365 32.5t180 93.5t49 167v922h174v-922q0 -251 -184 -359t-584 -108h-4287q-400 0 -584 108t-184 359zM2783 1477v129l746 321v-160z" />
<glyph unicode="&#xdb;" horiz-adv-x="6109" d="M143 467v922h174v-922q0 -106 49 -167t180 -93.5t365 -32.5h4287q234 0 365 32.5t180 93.5t49 167v922h174v-922q0 -251 -184 -359t-584 -108h-4287q-400 0 -584 108t-184 359zM2564 1462v49q0 41 10 62.5t39 46.5l369 307h145l369 -307q30 -24 39.5 -45.5t9.5 -63.5v-49 h-145v41q0 26 -7.5 41.5t-27.5 32.5l-307 252l-305 -252q-20 -17 -26.5 -32t-6.5 -42v-41h-156z" />
<glyph unicode="&#xdc;" horiz-adv-x="6109" d="M143 467v922h174v-922q0 -106 49 -167t180 -93.5t365 -32.5h4287q234 0 365 32.5t180 93.5t49 167v922h174v-922q0 -251 -184 -359t-584 -108h-4287q-400 0 -584 108t-184 359zM2638 1513v312h188v-312h-188zM3283 1513v312h186v-312h-186z" />
<glyph unicode="&#xdd;" horiz-adv-x="6027" d="M102 1051v338h174v-338q0 -78 26 -130t92.5 -90.5t182.5 -55.5t293 -17h4285q143 0 245.5 11.5t170.5 34t108 59t56 81.5t16 107v338h174v-338q0 -251 -184 -358t-586 -107h-2054v-586h-174v586h-2057q-400 0 -584 107t-184 358zM2742 1477v129l746 321v-160z" />
<glyph unicode="&#xde;" horiz-adv-x="6074" d="M164 0v1389h174v-252h4970q185 0 314.5 -23t205.5 -68.5t110 -107.5t34 -147v-132q0 -85 -34 -147t-110 -107.5t-205.5 -68.5t-314.5 -23h-4970v-313h-174zM338 487h4970q183 0 290.5 18.5t153.5 55.5t46 98v132q0 61 -46 98t-153.5 55.5t-290.5 18.5h-4970v-476z" />
<glyph unicode="&#xdf;" horiz-adv-x="12296" d="M104 973v69q0 85 34 147t110 108t205.5 69t314.5 23h5247v-175h-5247q-183 0 -290.5 -18.5t-153 -55.5t-45.5 -98v-69q0 -61 45.5 -98t153 -55.5t290.5 -18.5h4624q148 0 260 -15t188 -43t124 -71t69 -95.5t21 -119.5v-111q0 -85 -34 -147t-110 -107.5t-205 -68.5 t-313 -23h-5224v174h5224q183 0 290.5 18t153.5 55t46 99v111q0 61 -46 98t-153.5 55.5t-290.5 18.5h-4624q-185 0 -314.5 22.5t-205.5 68t-110 107t-34 146.5zM6253 973v69q0 85 34 147t109.5 108t205 69t314.5 23h5247v-175h-5247q-183 0 -290.5 -18.5t-153 -55.5 t-45.5 -98v-69q0 -61 45.5 -98t153 -55.5t290.5 -18.5h4624q148 0 260 -15t188 -43t124 -71t69 -95.5t21 -119.5v-111q0 -85 -34 -147t-110 -107.5t-205 -68.5t-313 -23h-5224v174h5224q183 0 290.5 18t153.5 55t46 99v111q0 61 -46 98t-153.5 55.5t-290.5 18.5h-4624 q-185 0 -314 22.5t-205.5 68t-110 107t-33.5 146.5z" />
<glyph unicode="&#xe0;" horiz-adv-x="6223" d="M164 0v1303q0 86 86 86h5724q86 0 86 -86v-1303h-172v608h-5550v-608h-174zM338 782h5550v432h-5550v-432zM2636 1765v162l745 -319v-129z" />
<glyph unicode="&#xe1;" horiz-adv-x="6223" d="M164 0v1303q0 86 86 86h5724q86 0 86 -86v-1303h-172v608h-5550v-608h-174zM338 782h5550v432h-5550v-432zM2841 1477v129l745 321v-160z" />
<glyph unicode="&#xe2;" horiz-adv-x="6223" d="M164 0v1303q0 86 86 86h5724q86 0 86 -86v-1303h-172v608h-5550v-608h-174zM338 782h5550v432h-5550v-432zM2621 1462v49q0 41 10 62.5t40 46.5l368 307h146l368 -307q30 -24 39.5 -45.5t9.5 -63.5v-49h-145v41q0 26 -7.5 41.5t-27.5 32.5l-307 252l-305 -252 q-20 -17 -26.5 -32t-6.5 -42v-41h-156z" />
<glyph unicode="&#xe3;" horiz-adv-x="6223" d="M164 0v1303q0 86 86 86h5724q86 0 86 -86v-1303h-172v608h-5550v-608h-174zM338 782h5550v432h-5550v-432zM2685 1636v131h854v-131h-854z" />
<glyph unicode="&#xe4;" horiz-adv-x="6223" d="M164 0v1303q0 86 86 86h5724q86 0 86 -86v-1303h-172v608h-5550v-608h-174zM338 782h5550v432h-5550v-432zM2695 1513v312h189v-312h-189zM3340 1513v312h187v-312h-187z" />
<glyph unicode="&#xe5;" horiz-adv-x="6223" d="M164 0v1303q0 86 86 86h5724q86 0 86 -86v-1303h-172v608h-5550v-608h-174zM338 782h5550v432h-5550v-432zM2873 1587v215q0 67 27 96t94 29h236q68 0 94.5 -29t26.5 -96v-215q0 -67 -26.5 -96t-94.5 -29h-236q-67 0 -94 29t-27 96zM2978 1616q0 -32 8.5 -41.5t38.5 -9.5 h176q28 0 36.5 9.5t8.5 41.5v166q0 30 -8 38.5t-35 8.5h-182q-27 0 -35 -9t-8 -42v-162z" />
<glyph unicode="&#xe6;" horiz-adv-x="11079" d="M164 0v1303q0 86 86 86h5314q86 0 86 -86v-29q180 115 594 115h4698v-175h-4698q-228 0 -358.5 -31.5t-181.5 -89.5t-54 -157v-115h5272v-182h-5272v-172q0 -106 49 -167t180 -93.5t365 -32.5h4701v-174h-4701q-414 0 -594 115v-115h-172v639h-5140v-639h-174zM338 821 h5140v393h-5140v-393z" />
<glyph unicode="&#xe7;" horiz-adv-x="5892" d="M123 467v455q0 251 184 359t584 108h4934v-175h-4934q-177 0 -293 -17t-182.5 -55t-92.5 -90t-26 -130v-455q0 -106 49 -167t180 -93.5t365 -32.5h4934v-174h-4934q-400 0 -584 108t-184 359zM2826 -528l53 184q13 48 13 108v113h174v-123q0 -44 -21 -106l-59 -176h-160z " />
<glyph unicode="&#xe8;" horiz-adv-x="6135" d="M123 467v455q0 251 184 359t584 108h5108v-175h-5108q-177 0 -293 -17t-182.5 -55t-92.5 -90t-26 -130v-123h5681v-172h-5681v-160q0 -106 49 -167t180 -93.5t365 -32.5h5110v-174h-5110q-400 0 -584 108t-184 359zM2593 1765v162l745 -319v-129z" />
<glyph unicode="&#xe9;" horiz-adv-x="6135" d="M123 467v455q0 251 184 359t584 108h5108v-175h-5108q-177 0 -293 -17t-182.5 -55t-92.5 -90t-26 -130v-123h5681v-172h-5681v-160q0 -106 49 -167t180 -93.5t365 -32.5h5110v-174h-5110q-400 0 -584 108t-184 359zM2798 1477v129l745 321v-160z" />
<glyph unicode="&#xea;" horiz-adv-x="6135" d="M123 467v455q0 251 184 359t584 108h5108v-175h-5108q-177 0 -293 -17t-182.5 -55t-92.5 -90t-26 -130v-123h5681v-172h-5681v-160q0 -106 49 -167t180 -93.5t365 -32.5h5110v-174h-5110q-400 0 -584 108t-184 359zM2576 1462v49q0 41 10 62.5t40 46.5l368 307h146 l368 -307q30 -24 39.5 -45.5t9.5 -63.5v-49h-145v41q0 26 -7.5 41.5t-27.5 32.5l-307 252l-305 -252q-20 -17 -26.5 -32t-6.5 -42v-41h-156z" />
<glyph unicode="&#xeb;" horiz-adv-x="6135" d="M123 467v455q0 251 184 359t584 108h5108v-175h-5108q-177 0 -293 -17t-182.5 -55t-92.5 -90t-26 -130v-123h5681v-172h-5681v-160q0 -106 49 -167t180 -93.5t365 -32.5h5110v-174h-5110q-400 0 -584 108t-184 359zM2652 1513v312h189v-312h-189zM3297 1513v312h187v-312 h-187z" />
<glyph unicode="&#xec;" horiz-adv-x="638" d="M-106 1765v162l745 -319v-129zM281 0v1389h174v-1389h-174z" />
<glyph unicode="&#xed;" horiz-adv-x="647" d="M2 1477v129l746 321v-160zM184 0v1389h174v-1389h-174z" />
<glyph unicode="&#xee;" horiz-adv-x="831" d="M-74 1462v49q0 41 10 62.5t39 46.5l369 307h145l369 -307q30 -24 39.5 -45.5t9.5 -63.5v-49h-145v41q0 26 -7.5 41.5t-27.5 32.5l-307 252l-305 -252q-20 -17 -26.5 -32t-6.5 -42v-41h-156zM330 0v1389h174v-1389h-174z" />
<glyph unicode="&#xef;" horiz-adv-x="696" d="M-68 1513v312h189v-312h-189zM260 0v1389h174v-1389h-174zM578 1513v312h186v-312h-186z" />
<glyph unicode="&#xf0;" horiz-adv-x="6262" d="M80 627v172h164v504q0 86 86 86h5042q400 0 584 -108t184 -359v-455q0 -251 -184 -359t-584 -108h-5042q-86 0 -86 86v541h-164zM418 174h4954q235 0 366.5 32.5t180.5 93.5t49 167v455q0 78 -26 130t-92.5 90t-183 55t-294.5 17h-4954v-415h2402v-172h-2402v-453z" />
<glyph unicode="&#xf1;" horiz-adv-x="6148" d="M143 0v922q0 251 184 359t584 108h4326q400 0 584 -108t184 -359v-922h-174v922q0 78 -26 130t-92.5 90t-182.5 55t-293 17h-4326q-177 0 -293 -17t-182.5 -55t-92.5 -90t-26 -130v-922h-174zM2646 1636v131h854v-131h-854z" />
<glyph unicode="&#xf2;" d="M123 467v455q0 251 184 359t584 108h4325q400 0 584 -108t184 -359v-455q0 -251 -184 -359t-584 -108h-4325q-400 0 -584 108t-184 359zM297 467q0 -106 49 -167t180 -93.5t365 -32.5h4325q234 0 365 32.5t180 93.5t49 167v455q0 78 -26 130t-92.5 90t-182.5 55t-293 17 h-4325q-177 0 -293 -17t-182.5 -55t-92.5 -90t-26 -130v-455zM2578 1765v162l746 -319v-129z" />
<glyph unicode="&#xf3;" d="M123 467v455q0 251 184 359t584 108h4325q400 0 584 -108t184 -359v-455q0 -251 -184 -359t-584 -108h-4325q-400 0 -584 108t-184 359zM297 467q0 -106 49 -167t180 -93.5t365 -32.5h4325q234 0 365 32.5t180 93.5t49 167v455q0 78 -26 130t-92.5 90t-182.5 55t-293 17 h-4325q-177 0 -293 -17t-182.5 -55t-92.5 -90t-26 -130v-455zM2783 1477v129l746 321v-160z" />
<glyph unicode="&#xf4;" d="M123 467v455q0 251 184 359t584 108h4325q400 0 584 -108t184 -359v-455q0 -251 -184 -359t-584 -108h-4325q-400 0 -584 108t-184 359zM297 467q0 -106 49 -167t180 -93.5t365 -32.5h4325q234 0 365 32.5t180 93.5t49 167v455q0 78 -26 130t-92.5 90t-182.5 55t-293 17 h-4325q-177 0 -293 -17t-182.5 -55t-92.5 -90t-26 -130v-455zM2562 1462v49q0 41 10 62.5t39 46.5l369 307h145l369 -307q30 -24 39.5 -45.5t9.5 -63.5v-49h-145v41q0 26 -7.5 41.5t-27.5 32.5l-307 252l-306 -252q-20 -17 -26 -32t-6 -42v-41h-156z" />
<glyph unicode="&#xf5;" d="M123 467v455q0 251 184 359t584 108h4325q400 0 584 -108t184 -359v-455q0 -251 -184 -359t-584 -108h-4325q-400 0 -584 108t-184 359zM297 467q0 -106 49 -167t180 -93.5t365 -32.5h4325q234 0 365 32.5t180 93.5t49 167v455q0 78 -26 130t-92.5 90t-182.5 55t-293 17 h-4325q-177 0 -293 -17t-182.5 -55t-92.5 -90t-26 -130v-455zM2626 1636v131h854v-131h-854z" />
<glyph unicode="&#xf6;" d="M123 467v455q0 251 184 359t584 108h4325q400 0 584 -108t184 -359v-455q0 -251 -184 -359t-584 -108h-4325q-400 0 -584 108t-184 359zM297 467q0 -106 49 -167t180 -93.5t365 -32.5h4325q234 0 365 32.5t180 93.5t49 167v455q0 78 -26 130t-92.5 90t-182.5 55t-293 17 h-4325q-177 0 -293 -17t-182.5 -55t-92.5 -90t-26 -130v-455zM2638 1513v312h188v-312h-188zM3283 1513v312h186v-312h-186z" />
<glyph unicode="&#xf7;" horiz-adv-x="1363" d="M164 645v143h1036v-143h-1036zM594 168v354h174v-354h-174zM594 911v355h174v-355h-174z" />
<glyph unicode="&#xf8;" d="M123 467v455q0 251 184 359t584 108h2974l321 241l105 -139l-138 -102h1063q400 0 584 -108t184 -359v-455q0 -251 -184 -359t-584 -108h-2904l-391 -295l-106 141l202 154h-1126q-400 0 -584 108t-184 359zM297 467q0 -106 49 -167t180 -93.5t365 -32.5h1358l1384 1040 h-2742q-177 0 -293 -17t-182.5 -55t-92.5 -90t-26 -130v-455zM2544 174h2672q234 0 365 32.5t180 93.5t49 167v455q0 78 -26 130t-92.5 90t-182.5 55t-293 17h-1292z" />
<glyph unicode="&#xf9;" horiz-adv-x="6109" d="M143 467v922h174v-922q0 -106 49 -167t180 -93.5t365 -32.5h4287q234 0 365 32.5t180 93.5t49 167v922h174v-922q0 -251 -184 -359t-584 -108h-4287q-400 0 -584 108t-184 359zM2578 1765v162l746 -319v-129z" />
<glyph unicode="&#xfa;" horiz-adv-x="6109" d="M143 467v922h174v-922q0 -106 49 -167t180 -93.5t365 -32.5h4287q234 0 365 32.5t180 93.5t49 167v922h174v-922q0 -251 -184 -359t-584 -108h-4287q-400 0 -584 108t-184 359zM2783 1477v129l746 321v-160z" />
<glyph unicode="&#xfb;" horiz-adv-x="6109" d="M143 467v922h174v-922q0 -106 49 -167t180 -93.5t365 -32.5h4287q234 0 365 32.5t180 93.5t49 167v922h174v-922q0 -251 -184 -359t-584 -108h-4287q-400 0 -584 108t-184 359zM2564 1462v49q0 41 10 62.5t39 46.5l369 307h145l369 -307q30 -24 39.5 -45.5t9.5 -63.5v-49 h-145v41q0 26 -7.5 41.5t-27.5 32.5l-307 252l-305 -252q-20 -17 -26.5 -32t-6.5 -42v-41h-156z" />
<glyph unicode="&#xfc;" horiz-adv-x="6109" d="M143 467v922h174v-922q0 -106 49 -167t180 -93.5t365 -32.5h4287q234 0 365 32.5t180 93.5t49 167v922h174v-922q0 -251 -184 -359t-584 -108h-4287q-400 0 -584 108t-184 359zM2638 1513v312h188v-312h-188zM3283 1513v312h186v-312h-186z" />
<glyph unicode="&#xfd;" horiz-adv-x="6027" d="M102 1051v338h174v-338q0 -78 26 -130t92.5 -90.5t182.5 -55.5t293 -17h4285q143 0 245.5 11.5t170.5 34t108 59t56 81.5t16 107v338h174v-338q0 -251 -184 -358t-586 -107h-2054v-586h-174v586h-2057q-400 0 -584 107t-184 358zM2742 1477v129l746 321v-160z" />
<glyph unicode="&#xfe;" horiz-adv-x="6074" d="M164 0v1389h174v-252h4970q185 0 314.5 -23t205.5 -68.5t110 -107.5t34 -147v-132q0 -85 -34 -147t-110 -107.5t-205.5 -68.5t-314.5 -23h-4970v-313h-174zM338 487h4970q183 0 290.5 18.5t153.5 55.5t46 98v132q0 61 -46 98t-153.5 55.5t-290.5 18.5h-4970v-476z" />
<glyph unicode="&#xff;" horiz-adv-x="6027" d="M102 1051v338h174v-338q0 -78 26 -130t92.5 -90.5t182.5 -55.5t293 -17h4285q143 0 245.5 11.5t170.5 34t108 59t56 81.5t16 107v338h174v-338q0 -251 -184 -358t-586 -107h-2054v-586h-174v586h-2057q-400 0 -584 107t-184 358zM2597 1513v312h188v-312h-188zM3242 1513 v312h186v-312h-186z" />
<glyph unicode="&#x152;" horiz-adv-x="11003" d="M123 467v455q0 251 184 359t584 108h3916q263 0 430 -45.5t250 -145.5q83 100 250.5 145.5t431.5 45.5h4698v-175h-4698q-177 0 -293 -17t-182.5 -55t-92.5 -90t-26 -130v-123h5271v-172h-5271v-160q0 -106 49 -167t180 -93.5t365 -32.5h4700v-174h-4700 q-264 0 -431.5 45t-250.5 143q-83 -98 -250 -143t-430 -45h-3916q-400 0 -584 108t-184 359zM297 467q0 -106 49 -167t180 -93.5t365 -32.5h3916q234 0 365 32.5t180 93.5t49 167v455q0 78 -26 130t-92.5 90t-182.5 55t-293 17h-3916q-177 0 -293 -17t-182.5 -55t-92.5 -90 t-26 -130v-455z" />
<glyph unicode="&#x153;" horiz-adv-x="11003" d="M123 467v455q0 251 184 359t584 108h3916q263 0 430 -45.5t250 -145.5q83 100 250.5 145.5t431.5 45.5h4698v-175h-4698q-177 0 -293 -17t-182.5 -55t-92.5 -90t-26 -130v-123h5271v-172h-5271v-160q0 -106 49 -167t180 -93.5t365 -32.5h4700v-174h-4700 q-264 0 -431.5 45t-250.5 143q-83 -98 -250 -143t-430 -45h-3916q-400 0 -584 108t-184 359zM297 467q0 -106 49 -167t180 -93.5t365 -32.5h3916q234 0 365 32.5t180 93.5t49 167v455q0 78 -26 130t-92.5 90t-182.5 55t-293 17h-3916q-177 0 -293 -17t-182.5 -55t-92.5 -90 t-26 -130v-455z" />
<glyph unicode="&#x178;" horiz-adv-x="6027" d="M102 1051v338h174v-338q0 -78 26 -130t92.5 -90.5t182.5 -55.5t293 -17h4285q143 0 245.5 11.5t170.5 34t108 59t56 81.5t16 107v338h174v-338q0 -251 -184 -358t-586 -107h-2054v-586h-174v586h-2057q-400 0 -584 107t-184 358zM2597 1513v312h188v-312h-188zM3242 1513 v312h186v-312h-186z" />
<glyph unicode="&#x2c6;" horiz-adv-x="1308" d="M164 1462v49q0 41 10 62.5t39 46.5l369 307h145l369 -307q30 -24 39.5 -45.5t9.5 -63.5v-49h-146v41q0 26 -7 41.5t-27 32.5l-308 252l-305 -252q-20 -17 -26.5 -32t-6.5 -42v-41h-155z" />
<glyph unicode="&#x2dc;" horiz-adv-x="1181" d="M164 1636v131h854v-131h-854z" />
<glyph unicode="&#x2000;" horiz-adv-x="963" />
<glyph unicode="&#x2001;" horiz-adv-x="1927" />
<glyph unicode="&#x2002;" horiz-adv-x="963" />
<glyph unicode="&#x2003;" horiz-adv-x="1927" />
<glyph unicode="&#x2004;" horiz-adv-x="642" />
<glyph unicode="&#x2005;" horiz-adv-x="481" />
<glyph unicode="&#x2006;" horiz-adv-x="321" />
<glyph unicode="&#x2007;" horiz-adv-x="321" />
<glyph unicode="&#x2008;" horiz-adv-x="240" />
<glyph unicode="&#x2009;" horiz-adv-x="385" />
<glyph unicode="&#x200a;" horiz-adv-x="107" />
<glyph unicode="&#x2010;" horiz-adv-x="1374" d="M164 639v182h1046v-182h-1046z" />
<glyph unicode="&#x2011;" horiz-adv-x="1374" d="M164 639v182h1046v-182h-1046z" />
<glyph unicode="&#x2012;" horiz-adv-x="1374" d="M164 639v182h1046v-182h-1046z" />
<glyph unicode="&#x2013;" horiz-adv-x="3438" d="M164 639v182h3111v-182h-3111z" />
<glyph unicode="&#x2014;" horiz-adv-x="4509" d="M164 639v182h4182v-182h-4182z" />
<glyph unicode="&#x2018;" horiz-adv-x="567" d="M164 1202v187h174v-177q0 -64 12 -108l53 -184h-159l-60 176q-20 59 -20 106z" />
<glyph unicode="&#x2019;" horiz-adv-x="567" d="M164 920l53 184q12 44 12 108v177h174v-187q0 -47 -20 -106l-59 -176h-160z" />
<glyph unicode="&#x201a;" horiz-adv-x="567" d="M164 -160l53 185q12 44 12 108v176h174v-186q0 -48 -20 -107l-59 -176h-160z" />
<glyph unicode="&#x201c;" horiz-adv-x="1134" d="M164 1202v187h174v-177q0 -64 12 -108l53 -184h-159l-60 176q-20 59 -20 106zM731 1202v187h174v-177q0 -60 13 -108l53 -184h-160l-59 176q-21 62 -21 106z" />
<glyph unicode="&#x201d;" horiz-adv-x="1134" d="M164 920l53 184q12 44 12 108v177h174v-187q0 -47 -20 -106l-59 -176h-160zM731 920l53 184q13 48 13 108v177h174v-187q0 -44 -21 -106l-59 -176h-160z" />
<glyph unicode="&#x201e;" horiz-adv-x="1134" d="M164 -160l53 185q12 44 12 108v176h174v-186q0 -48 -20 -107l-59 -176h-160zM731 -160l53 185q13 48 13 108v176h174v-186q0 -45 -21 -107l-59 -176h-160z" />
<glyph unicode="&#x2022;" horiz-adv-x="735" d="M164 629v194q0 60 24 85.5t84 25.5h193q60 0 83 -25.5t23 -85.5v-194q0 -60 -23 -86.5t-83 -26.5h-193q-60 0 -84 26.5t-24 86.5z" />
<glyph unicode="&#x2026;" horiz-adv-x="2054" d="M203 0v354h174v-354h-174zM940 0v354h174v-354h-174zM1677 0v354h174v-354h-174z" />
<glyph unicode="&#x202f;" horiz-adv-x="385" />
<glyph unicode="&#x2039;" horiz-adv-x="626" d="M31 723l452 455l113 -107l-363 -348l363 -350l-113 -107z" />
<glyph unicode="&#x203a;" horiz-adv-x="626" d="M31 373l362 350l-362 348l112 107l453 -455l-453 -457z" />
<glyph unicode="&#x205f;" horiz-adv-x="481" />
<glyph unicode="&#x20ac;" horiz-adv-x="3926" d="M164 481l82 144h196v184h-278l82 143h196q10 234 195 335.5t573 101.5h2552l-137 -175h-2415q-222 0 -352 -30t-183 -85t-59 -147h2802l-113 -143h-2689v-184h2546l-113 -144h-2433v-14q0 -106 49 -167t180 -93.5t365 -32.5h2497v-174h-2497q-400 0 -584 108t-184 359v14 h-278z" />
<glyph unicode="&#x2122;" horiz-adv-x="1714" d="M164 1278v108h508v-108h-187v-619h-127v619h-194zM795 659v727h75q50 0 70 -36l234 -424l229 422q10 22 26.5 30t47.5 8h73v-727h-114v523l-201 -367q-11 -20 -20.5 -26.5t-30.5 -6.5h-21q-24 0 -34 6.5t-19 26.5l-201 367v-523h-114z" />
</font>
</defs>
</svg>
